<svg xmlns="http://www.w3.org/2000/svg" xmlns:xlink="http://www.w3.org/1999/xlink" xmlns:inkscape="http://www.inkscape.org/namespaces/inkscape" version="1.1" width="841.89" height="595.276" viewBox="0 0 841.89 595.276">
<defs>
<clipPath id="clip_1">
<path transform="matrix(1,0,0,-1,0,595.276)" d="M0 595.276H841.89V0H0Z"/>
</clipPath>
</defs>
<g>
<g clip-path="url(#clip_1)">
<path transform="matrix(1,0,0,-1,414.0234,297.3886)" d="M0 0C-4.175-.154-7.2-3.357-7.029-7.443-6.868-11.32-3.508-14.468 .38-14.386 4.311-14.304 7.546-10.821 7.39-6.841 7.232-2.852 3.992 .147 0 0M14.001 39.723C15.974 35.646 17.999 31.593 19.868 27.469 20.194 26.749 20.139 25.599 19.792 24.87 16.828 18.627 13.943 12.334 10.64 6.271 8.933 3.136 8.521 .393 10.004-2.902 12.353-8.12 10.142-14.155 5.273-16.619-.061-19.318-5.922-17.699-9.06-12.659-12.595-6.98-10.001 .151-3.443 3.022 4.011 6.284 9.024 11.868 11.018 19.725 12.196 24.373 12.56 29.233 13.203 34.01 13.459 35.917 13.48 37.856 13.609 39.78 13.74 39.761 13.87 39.742 14.001 39.723" fill="#0f5364"/>
<path transform="matrix(1,0,0,-1,426.6767,375.1547)" d="M0 0V-.815H-24.904V0C-21.823 0-19.599 4.078-19.599 8.889V48.685C-19.599 53.496-21.823 57.573-24.904 57.573V58.389H0V57.573C-3.167 57.573-5.392 53.496-5.392 48.685V8.889C-5.392 4.078-3.167 0 0 0" fill="#0f5364"/>
<path transform="matrix(1,0,0,-1,640.8437,346.20649)" d="M0 0C7.788 0 9.328 6.367 9.328 9.387H10.271V-10.121H9.328C9.328-7.183 7.788-.815 0-.815H-6.248C-8.233-.815-9.842-2.482-9.842-4.538V-25.499C-9.842-27.555-8.233-29.222-6.248-29.222 5.904-29.222 11.981-21.059 14.892-10.692H15.747L14.118-26.705C13.925-28.6 12.383-30.037 10.544-30.037H-29.354V-29.222C-26.274-29.222-24.049-25.141-24.049-20.324V19.509C-24.049 24.325-26.274 28.406-29.354 28.406V29.222H10.64C12.438 29.222 13.959 27.846 14.201 26L15.747 14.203H14.892C10.185 24.487 5.904 28.406-6.248 28.406-8.233 28.406-9.842 26.739-9.842 24.684V3.723C-9.842 1.667-8.233 0-6.248 0Z" fill="#0f5364"/>
<path transform="matrix(1,0,0,-1,204.8115,346.3813)" d="M0 0H1.627C10.441 0 16.347 5.632 16.347 14.202 16.347 22.69 10.441 28.405 1.627 28.405H0ZM37.571-29.222V-30.038C35.774-30.69 34.063-30.854 31.666-30.854 23.536-30.854 14.121-29.059 14.121-15.346 14.121-6.367 10.1-.816 3.338-.816H1.712C.767-.816 0-1.61 0-2.589V-20.325C0-25.141 2.226-29.222 5.393-29.222V-30.038H-19.513V-29.222C-16.432-29.222-14.206-25.141-14.206-20.325V19.508C-14.206 24.324-16.432 28.405-19.513 28.405V29.222H12.667C25.076 29.222 30.981 23.344 30.981 15.753 30.981 6.938 22.938 .98 14.125 0 14.124 0 14.124 0 14.125-.001 21.655-.41 28.928-6.858 28.928-17.386 28.928-24.814 32.351-29.059 37.571-29.222" fill="#0f5364"/>
<path transform="matrix(1,0,0,-1,232.7421,376.4477)" d="M0 0V.788" fill="#0f5364"/>
<path transform="matrix(1,0,0,-1,315.7499,320.5473)" d="M0 0V-25.794C0-27.213 1.111-28.364 2.481-28.364 11.297-28.364 17.287-22.732 17.287-12.938 17.287-3.144 11.297 2.571 2.481 2.571 1.111 2.571 0 1.42 0 0M9.285-29.181C4.157-29.181 0-33.486 0-38.798V-46.159C0-50.975 2.225-55.056 5.392-55.056V-55.872H-19.514V-55.056C-16.433-55.056-14.207-50.975-14.207-46.159V-6.326C-14.207-1.51-16.433 2.571-19.514 2.571V3.388H14.464C25.589 3.388 31.922-2.49 31.922-12.856 31.922-23.141 25.589-29.181 14.464-29.181Z" fill="#0f5364"/>
<path transform="matrix(1,0,0,-1,388.7431,375.603)" d="M0 0V-.816H-24.818V0C-21.738 0-19.513 4.081-19.513 8.896V57.627H-19.94C-28.584 57.627-32.864 53.709-37.57 43.424H-38.427L-37.406 51.21C-36.863 55.353-33.447 58.443-29.411 58.443H4.593C8.629 58.443 12.045 55.353 12.588 51.21L13.608 43.424H12.752C8.045 53.709 3.766 57.627-4.878 57.627H-5.306V8.896C-5.306 4.081-3.08 0 0 0" fill="#0f5364"/>
<path transform="matrix(1,0,0,-1,498.3652,375.603)" d="M0 0V-.816H-24.905V0C-21.824 0-19.6 4.081-19.6 8.896V48.73C-19.6 53.546-22.632 56.246-24.61 57.825L-24.905 58.443H18.229L20.197 43.424H19.342C14.635 53.709 10.354 57.627-1.799 57.627-3.783 57.627-5.393 55.96-5.393 53.904V32.944C-5.393 30.888-3.783 29.222-1.799 29.222H4.449C12.238 29.222 13.777 35.588 13.777 38.607H14.72V19.101H13.777C13.777 22.038 12.238 28.405 4.449 28.405H-1.799C-3.783 28.405-5.393 26.738-5.393 24.683V8.896C-5.393 4.081-3.168 0 0 0" fill="#0f5364"/>
<path transform="matrix(1,0,0,-1,528.4628,360.1723)" d="M0 0C-5.012 0-8.372 5.334-6.353 10.086L-.042 24.941-.023 24.977 .079 24.729 6.345 10.106C8.382 5.353 5.022 0 0 0M21.783 5.741C16.629 17.896 11.504 30.061 6.303 42.198L-.6 25.891-14.321-6.53C-16.368-11.348-20.136-14.533-23.393-15.429V-16.245H-11.754V-15.429C-14.833-15.429-15.429-11.348-13.373-6.53L-12.794-5.146C-11.694-2.518-9.191-.816-6.425-.816H6.609C9.344-.816 11.823-2.479 12.942-5.062L13.578-6.53C15.634-11.348 15.039-15.429 11.959-15.429V-16.245H31.272C27.7-8.021 24.295-.159 21.783 5.741" fill="#0f5364"/>
<path transform="matrix(1,0,0,-1,265.4423,360.1723)" d="M0 0C-5.012 0-8.372 5.334-6.354 10.086L-.042 24.941-.023 24.977 .079 24.729 6.345 10.106C8.382 5.353 5.021 0 0 0M21.783 5.741C16.629 17.896 11.503 30.061 6.303 42.198L-.601 25.891-14.322-6.53C-16.369-11.348-20.137-14.533-23.393-15.429V-16.245H-11.755V-15.429C-14.834-15.429-15.429-11.348-13.373-6.53L-12.794-5.146C-11.694-2.518-9.192-.816-6.426-.816H6.609C9.344-.816 11.823-2.479 12.942-5.062L13.577-6.53C15.634-11.348 15.038-15.429 11.959-15.429V-16.245H31.272C27.699-8.021 24.295-.159 21.783 5.741" fill="#0f5364"/>
<path transform="matrix(1,0,0,-1,578.4521,321.5219)" d="M0 0V-50.535C0-52.494 1.532-54.081 3.423-54.081 13.95-54.081 20.197-44.123 20.197-26.003 20.197-7.964 13.95 3.546 3.423 3.546 1.532 3.546 0 1.958 0 0M-19.513-54.897V-54.081C-16.432-54.081-14.207-50-14.207-45.185V-5.352C-14.207-.535-16.432 3.546-19.513 3.546V4.362H10.099C29.526 4.362 34.833-12.126 34.833-25.268 34.833-38.409 29.526-54.897 10.099-54.897Z" fill="#0f5364"/>
<path transform="matrix(1,0,0,-1,326.6904,407.0942)" d="M0 0C-.674 2.617-1.784 5.195-5.513 5.195-8.606 5.195-9.677 2.935-9.677 .872-9.677-1.864-7.932-3.252-4.641-4.958 .119-7.417 2.182-9.241 2.182-13.009 2.182-17.173-1.427-20.347-6.544-20.347-8.923-20.347-10.986-19.673-12.611-19.037-12.93-17.928-13.405-15.23-13.683-13.089L-12.453-12.771C-11.66-15.428-9.915-18.88-5.791-18.88-2.935-18.88-1.189-16.896-1.189-14.318-1.189-11.265-2.815-10.034-6.306-8.131-10.471-5.87-12.811-3.967-12.811-.278-12.811 3.253-9.875 6.584-4.641 6.584-2.419 6.584-.238 5.989 .595 5.83 .754 4.402 .912 2.815 1.23 .238Z" fill="#0f5364"/>
<path transform="matrix(1,0,0,-1,367.3818,407.29243)" d="M0 0C-.356 1.27-.832 2.578-1.269 3.292-1.903 4.363-2.3 4.64-4.481 4.64H-8.447V-14.675C-8.447-17.769-8.13-18.205-4.362-18.443V-19.554H-15.904V-18.443C-12.215-18.205-11.898-17.809-11.898-14.675V4.64H-15.507C-17.688 4.64-18.323 4.402-18.997 3.213-19.474 2.42-19.79 1.468-20.307 0H-21.496C-21.258 2.42-21.02 4.918-20.9 7.14H-19.988C-19.395 6.187-18.957 6.228-17.847 6.228H-2.141C-1.031 6.228-.713 6.385-.119 7.14H.833C.833 5.275 .992 2.42 1.19 .119Z" fill="#0f5364"/>
<path transform="matrix(1,0,0,-1,413.3505,402.1762)" d="M0 0C-2.499-.158-3.412-.793-3.49-2.617-3.53-3.529-3.609-5.196-3.609-8.845V-13.128C-3.609-17.174-4.086-20.267-6.386-22.687-8.25-24.63-10.946-25.225-13.684-25.225-15.984-25.225-18.442-24.749-20.187-23.4-22.568-21.576-23.719-18.84-23.719-14.199V-4.085C-23.719-.516-24.035-.277-27.208 0V1.111H-16.777V0C-19.95-.198-20.268-.516-20.268-4.085V-14C-20.268-19.791-17.53-22.964-12.771-22.964-7.14-22.964-5.354-19.474-5.354-12.89V-8.845C-5.354-5.196-5.474-3.688-5.553-2.617-5.672-.833-6.584-.158-9.52 0V1.111H0Z" fill="#0f5364"/>
<path transform="matrix(1,0,0,-1,436.8681,421.57069)" d="M0 0C0-2.975 1.27-3.808 4.244-3.808 11.383-3.808 15.031 1.071 15.031 8.012 15.031 12.334 13.564 15.627 10.431 17.53 8.606 18.681 6.307 19.117 3.649 19.117 1.864 19.117 .913 18.879 .516 18.562 .158 18.323 0 17.887 0 16.341ZM4.006 20.506C9.598 20.506 13.128 19.395 15.588 17.054 17.531 15.15 18.958 12.374 18.958 8.566 18.958 3.926 17.055 .158 14-2.142 10.986-4.403 7.14-5.275 2.261-5.275H-7.02V-4.165C-3.609-3.847-3.45-3.569-3.45-.317V15.508C-3.45 18.918-3.926 19.077-7.02 19.395V20.506Z" fill="#0f5364"/>
<path transform="matrix(1,0,0,-1,473.9521,426.8461)" d="M0 0V1.11C3.251 1.468 3.569 1.627 3.569 4.998V20.743C3.569 24.154 3.251 24.312 0 24.67V25.781H10.628V24.67C7.337 24.312 7.02 24.154 7.02 20.743V4.998C7.02 1.587 7.337 1.468 10.628 1.11V0Z" fill="#0f5364"/>
<path transform="matrix(1,0,0,-1,515.2382,401.978)" d="M0 0C-4.442 0-8.488-3.728-8.488-11.145-8.488-18.521-4.442-23.956 1.19-23.956 5.989-23.956 9.599-20.386 9.599-12.731 9.599-4.402 5.196 0 0 0M.793 1.468C7.575 1.468 13.644-3.728 13.644-11.621 13.644-20.148 7.854-25.463 .556-25.463-7.06-25.463-12.612-19.672-12.612-12.216-12.612-5.116-7.575 1.468 .793 1.468" fill="#0f5364"/>
<path transform="matrix(1,0,0,-1,463.3281,175.44132)" d="M0 0-19.366-44.322C-21.603-49.286-23.846-54.247-26.077-59.213-26.266-59.632-26.355-60.287-26.16-60.656-24.386-64.013-22.537-67.33-20.512-71.021-14.729-53.553-8.64-36.427-4.479-18.791-2.188-9.567 0 0 0 0" fill="#0f5364"/>
<path transform="matrix(1,0,0,-1,266.7187,257.3471)" d="M0 0C0 0 38.521-40.429 155.133 30.89 160.06 33.903 165.125 37.115 170.333 40.539 298.82 124.994 317.035 64.861 317.035 64.861 317.035 64.861 292.421 122.966 158.518 30.404 24.615-62.159 0 0 0 0" fill="#274ea5"/>
<path transform="matrix(1,0,0,-1,363.2079,222.6767)" d="M0 0C0 0 18.104-19 72.909 14.518 75.225 15.934 77.605 17.443 80.053 19.052 140.439 58.744 149 30.483 149 30.483 149 30.483 137.432 57.792 74.5 14.289 11.568-29.213 0 0 0 0" fill="#ff3700"/>
<path transform="matrix(1,0,0,-1,463.4511,309.8861)" d="M0 0C-3.7-.3-7.082 2.581-7.302 6.22-7.524 9.902-4.771 13.013-1.076 13.253 2.708 13.499 5.771 10.729 5.98 6.87 6.167 3.462 3.392 .274 0 0M-27.85 54.424C-29.297 54.424-30.471 55.598-30.471 57.045-30.471 58.493-29.297 59.666-27.85 59.666-26.402 59.666-25.229 58.493-25.229 57.045-25.229 55.598-26.402 54.424-27.85 54.424M18.077-7.274C16.043-7.336 14.621-6.991 14.029-6.812 13.928-6.777 13.824-6.746 13.723-6.71 8.312-4.8 7.098-2.186 8.721 3.36 9.923 7.468 9.249 11.319 5.82 14.146 4.426 15.295 2.568 15.969 .828 16.599-5.462 18.874-10.626 22.664-12.99 28.961-15.191 34.823-16.303 41.087-18.119 47.105-19.37 51.251-20.443 55.605-22.571 59.306-31.098 74.131-39.975 88.757-48.783 103.419-53.002 110.442-57.312 117.413-61.6 124.395L-71.583 142.051-58.701 111.626-58.4 111.023C-58.363 110.936-58.33 110.847-58.292 110.76-51.786 95.606-45.285 80.438-38.237 65.532-30.187 48.506-22.375 31.296-10.704 16.271-9.318 14.487-9.198 12.52-9.892 10.37-12.338 2.797-7.499-3.53 .457-3.255 3.116-3.163 5.458-3.976 7.488-5.731 8.653-6.739 9.844-7.734 11.119-8.593 12.543-9.552 14.655-9.089 15.78-8.472L16.437-8.783C16.437-8.783 20.801-7.191 18.077-7.274" fill="#0f5364"/>
</g>
</g>
</svg>
